<?xml version="1.0" standalone="no"?>
<!DOCTYPE svg PUBLIC "-//W3C//DTD SVG 20010904//EN"
 "http://www.w3.org/TR/2001/REC-SVG-20010904/DTD/svg10.dtd">
<svg version="1.0" xmlns="http://www.w3.org/2000/svg"
 width="900.000000pt" height="900.000000pt" viewBox="0 0 900.000000 900.000000"
 preserveAspectRatio="xMidYMid meet">

<g transform="translate(0.000000,900.000000) scale(0.100000,-0.100000)"
fill="#000000" stroke="none">
<path d="M4624 7340 c-31 -12 -36 -24 -45 -109 -4 -42 -31 -278 -59 -526 -27
-247 -106 -956 -175 -1575 -123 -1106 -164 -1466 -169 -1484 -1 -5 -46 87
-100 205 -153 331 -225 486 -272 587 -24 52 -44 95 -44 98 0 2 -17 41 -39 86
-21 46 -75 164 -121 263 -45 99 -106 231 -136 294 -30 62 -54 115 -54 117 0 3
-19 44 -41 92 -23 48 -63 134 -89 192 -270 593 -278 609 -305 616 -36 9 -65
-5 -79 -37 -11 -26 3 -88 126 -581 388 -1559 547 -2202 545 -2205 -4 -3 -26
15 -382 302 -115 93 -320 258 -455 366 -135 109 -294 237 -355 286 -60 49
-146 118 -190 153 -44 35 -82 67 -85 70 -16 19 -58 40 -81 40 -32 0 -62 -31
-62 -65 1 -27 10 -42 130 -206 43 -58 183 -249 312 -425 237 -322 307 -418
506 -687 125 -169 195 -266 195 -271 0 -3 -229 63 -340 98 -41 14 -106 34
-145 45 -38 11 -124 37 -190 57 -66 20 -163 49 -215 64 -151 45 -280 84 -504
151 -194 59 -210 62 -235 48 -20 -12 -27 -23 -29 -56 l-3 -41 83 -51 c46 -28
88 -55 95 -61 7 -5 14 -10 17 -10 3 0 36 -20 73 -44 37 -24 131 -82 208 -129
77 -46 196 -120 265 -162 69 -43 213 -132 320 -198 107 -66 227 -139 265 -164
39 -24 180 -112 315 -195 268 -164 374 -229 523 -322 55 -34 113 -70 131 -81
18 -11 90 -55 159 -97 69 -43 135 -78 147 -78 27 0 25 -2 523 480 l109 105
288 -292 c305 -309 308 -311 361 -275 44 28 199 137 274 191 39 28 95 67 125
88 30 20 141 98 245 172 105 74 217 153 250 176 33 23 103 71 155 108 52 36
100 70 105 74 6 5 55 40 110 77 55 38 136 94 180 126 108 77 389 274 471 330
36 25 71 50 77 55 7 6 48 35 92 65 144 97 155 108 155 145 0 24 -7 39 -25 54
-24 18 -29 19 -74 5 -27 -8 -69 -21 -92 -30 -24 -9 -64 -22 -89 -29 -25 -7
-298 -99 -607 -203 -403 -136 -560 -185 -555 -173 4 12 192 308 292 461 5 8
69 107 141 220 314 489 389 606 399 617 5 7 10 14 10 17 0 2 28 46 61 97 34
51 68 108 76 127 13 32 13 37 -5 61 -11 16 -31 27 -49 29 -32 3 -46 -7 -238
-183 -60 -55 -170 -154 -244 -220 -73 -66 -146 -131 -161 -145 -116 -105 -207
-187 -220 -200 -9 -8 -52 -46 -95 -85 -44 -38 -82 -73 -85 -76 -3 -3 -57 -52
-120 -109 -63 -57 -135 -123 -160 -147 -25 -23 -46 -39 -48 -34 -1 4 63 333
143 732 80 398 152 758 160 799 7 41 21 109 30 150 9 41 23 109 31 150 7 41
19 98 25 125 6 28 19 93 29 145 10 52 43 221 74 374 52 257 55 281 41 302 -8
13 -26 26 -40 30 -46 11 -70 -17 -115 -133 -23 -59 -93 -236 -155 -393 -62
-157 -133 -337 -158 -400 -25 -63 -64 -162 -87 -220 -23 -58 -51 -127 -61
-155 -11 -27 -24 -59 -29 -70 -5 -11 -31 -78 -59 -150 -217 -563 -380 -966
-381 -945 0 8 -14 134 -30 280 -17 146 -37 328 -46 405 -8 77 -22 199 -30 270
-23 199 -41 356 -74 645 -27 242 -94 837 -119 1055 -6 50 -22 189 -36 310 -37
318 -65 576 -65 591 0 18 -32 52 -55 57 -11 3 -30 2 -41 -3z m77 -1085 c22
-192 53 -469 69 -615 27 -239 37 -333 70 -610 6 -47 22 -188 36 -315 14 -126
31 -286 39 -355 8 -69 28 -244 45 -390 16 -146 36 -320 44 -388 17 -141 23
-111 -79 -367 -35 -88 -93 -236 -130 -330 -36 -93 -76 -195 -89 -225 -13 -30
-26 -64 -30 -74 -4 -10 -8 -17 -10 -15 -2 2 -61 128 -131 279 -69 151 -144
312 -165 357 -22 46 -49 106 -62 134 l-22 52 18 166 c9 91 24 218 31 281 8 63
37 324 65 580 27 256 55 499 60 540 5 41 21 181 35 310 14 129 30 273 35 320
6 47 19 168 31 270 36 326 89 795 90 800 3 8 8 -33 50 -405z m-1383 -1080 c33
-71 84 -184 115 -250 30 -66 94 -204 141 -307 47 -104 125 -272 172 -375 47
-104 108 -235 135 -291 27 -57 49 -106 49 -108 0 -3 27 -61 60 -131 33 -69 60
-128 60 -130 0 -2 22 -52 49 -111 l49 -107 -14 -130 c-30 -276 -34 -298 -53
-282 -9 7 -52 42 -96 78 -44 35 -85 69 -91 74 -7 6 -41 33 -77 60 -63 49 -66
52 -86 125 -19 70 -517 2071 -527 2115 -5 23 32 -50 114 -230z m2608 173 c-5
-18 -426 -2107 -426 -2113 0 -9 -78 -82 -264 -248 -20 -17 -21 -17 -27 0 -3
10 -16 115 -29 234 l-23 216 45 114 c26 63 76 191 113 284 36 94 70 179 75
190 5 11 19 45 30 75 11 30 25 64 30 75 5 11 29 72 54 135 24 63 78 201 119
305 41 105 105 267 141 360 37 94 74 185 82 203 9 18 24 56 34 85 29 84 39
107 46 107 3 0 3 -10 0 -22z m-3464 -1263 c18 -17 155 -128 303 -247 149 -119
320 -256 380 -305 61 -49 146 -118 190 -153 44 -36 85 -69 91 -75 7 -5 55 -44
107 -85 l95 -75 48 -193 c26 -106 45 -195 42 -198 -3 -3 -92 21 -198 52 l-192
57 -87 116 c-48 64 -174 235 -281 381 -106 146 -219 299 -249 340 -31 42 -64
87 -73 100 -10 14 -50 68 -89 120 -39 52 -82 111 -95 130 -13 19 -32 46 -41
59 -16 22 -16 24 -1 15 9 -5 31 -23 50 -39z m4197 -27 c-23 -35 -55 -85 -72
-112 -32 -51 -320 -500 -337 -526 -6 -8 -65 -100 -131 -205 -67 -104 -144
-225 -171 -267 l-50 -77 -174 -58 c-95 -31 -175 -55 -177 -53 -8 8 71 377 84
397 6 10 67 68 135 128 68 61 139 124 157 140 95 85 429 387 482 435 33 30
100 91 149 135 49 44 98 90 109 103 39 42 36 22 -4 -40z m-1590 -1053 c7 -66
13 -127 14 -137 1 -9 -46 -60 -115 -123 -65 -58 -118 -102 -118 -98 0 5 23 67
51 138 28 72 60 153 70 180 11 28 24 59 28 70 5 11 17 41 28 67 10 26 21 42
24 35 3 -7 12 -66 18 -132z m-2844 50 c105 -31 231 -69 280 -85 50 -15 185
-56 300 -90 452 -135 433 -128 466 -174 17 -22 39 -52 49 -66 10 -14 47 -63
81 -110 35 -47 99 -134 144 -195 192 -260 225 -305 219 -305 -6 0 -97 51 -104
60 -3 3 -14 10 -25 17 -37 21 -369 225 -430 263 -72 45 -459 285 -790 489
-462 284 -429 264 -400 257 11 -3 106 -30 210 -61z m2045 56 c0 -9 70 -163
175 -389 24 -51 38 -89 31 -85 -7 5 -65 50 -129 102 -103 82 -117 97 -117 123
0 64 24 258 32 258 4 0 8 -4 8 -9z m2780 -5 c-8 -7 -51 -38 -95 -68 -44 -30
-156 -108 -248 -174 -93 -65 -179 -126 -190 -134 -28 -18 -372 -259 -452 -316
-33 -24 -118 -83 -190 -133 -71 -50 -178 -125 -237 -166 -60 -41 -108 -73
-108 -70 0 3 50 83 111 178 200 309 273 423 314 489 l30 48 335 112 c184 61
425 142 535 179 229 77 214 73 195 55z m-3091 -226 l120 -95 -5 -65 c-4 -36
-9 -68 -13 -71 -3 -3 -46 7 -96 23 l-90 28 -36 150 c-31 131 -34 149 -18 138
10 -7 72 -56 138 -108z m1491 106 c0 -8 -51 -252 -56 -268 -4 -15 -108 -58
-140 -58 -7 0 -14 26 -19 67 l-7 68 103 97 c92 86 119 108 119 94z m281 -373
c-23 -37 -64 -102 -91 -143 -90 -138 -155 -240 -185 -290 -26 -45 -52 -69 -40
-37 3 6 25 110 50 231 24 120 47 221 50 225 8 7 249 89 253 85 2 -1 -15 -33
-37 -71z m-2122 26 c75 -23 142 -46 148 -53 12 -10 123 -432 123 -464 0 -8
-21 15 -47 50 -25 34 -60 82 -77 105 -17 23 -39 52 -48 65 -25 34 -229 311
-241 326 -14 18 -7 16 142 -29z m1499 4 c-3 -35 -5 -37 -73 -59 l-70 -23 65
59 c36 33 69 60 73 60 5 0 7 -16 5 -37z m-823 -28 c36 -30 63 -55 59 -55 -4 0
-38 10 -76 22 -66 21 -68 23 -68 55 0 18 4 33 9 33 5 0 39 -25 76 -55z m1075
-72 c0 -11 -61 -308 -64 -311 -2 -1 -8 44 -15 100 -6 57 -14 122 -17 144 -6
42 -6 42 38 57 50 18 58 19 58 10z m-1364 -20 l56 -18 -6 -35 c-3 -19 -11 -92
-18 -162 -6 -71 -14 -128 -17 -128 -4 0 -24 73 -45 163 -22 89 -42 170 -44
180 -5 21 3 21 74 0z m1143 -145 c7 -51 20 -164 30 -251 l17 -158 -192 192
c-107 106 -191 196 -188 199 5 4 300 107 315 109 4 1 12 -41 18 -91z m-780 35
c86 -25 160 -50 165 -54 5 -4 -18 -34 -50 -65 -32 -31 -121 -117 -197 -192
-76 -74 -141 -132 -144 -128 -6 5 6 128 33 344 8 62 14 120 14 128 0 20 7 19
179 -33z"/>
<path d="M6055 1931 c-68 -28 -102 -115 -68 -174 24 -40 56 -57 111 -57 80 0
122 40 122 117 0 86 -87 146 -165 114z m100 -44 c18 -15 28 -36 32 -64 5 -37
2 -45 -25 -73 -41 -40 -83 -41 -123 -1 -83 83 27 215 116 138z"/>
<path d="M6063 1870 c-27 -11 -27 -10 -10 -75 15 -55 44 -72 39 -22 -3 34 19
36 41 5 12 -18 18 -20 28 -11 10 10 9 16 -5 32 -11 12 -16 27 -12 37 14 36
-30 54 -81 34z m45 -32 c-6 -18 -28 -21 -28 -4 0 9 7 16 16 16 9 0 14 -5 12
-12z"/>
</g>
</svg>
